<svg width="679" height="678" viewBox="0 0 679 678" fill="none" xmlns="http://www.w3.org/2000/svg">
<ellipse rx="20.0347" ry="19.4962" transform="matrix(0.999997 0.00246356 -0.00260153 0.999997 341.085 322.546)" fill="#CC6C06"/>
<path d="M314.135 0L318.871 45.944L340.643 52.0554L362.586 46.0516L367.561 0.131618L314.135 0ZM356.976 14.9482L331.404 14.8852L331.96 20.6194L356.391 20.6796L354.454 37.8966L340.825 40.9963L340.825 41.0311L340.672 41.0308L326.948 37.8288L326.136 29.0303L332.773 29.0466L333.248 33.4693L340.687 35.1703L348.163 33.506L349.016 26.2898L325.796 26.2326L324.059 9.3316L357.603 9.41423L356.976 14.9482Z" fill="#CC6C06"/>
<path d="M490.135 52L494.871 97.944L516.713 104.056L538.586 98.0516L543.561 52.1316L490.135 52ZM533.673 61.3912L532.99 66.8786L516.934 72.5603L516.892 72.5718L532.405 72.61L530.58 89.6184L516.909 92.9153L503.172 89.4928L502.304 80.9146L509.107 80.9314L509.541 85.3771L516.855 86.9386L524.47 85.1702L525.003 78.0229L501.866 77.9079L501.866 77.8963L501.838 77.9078L501.351 72.5335L516.962 67.1525L517.867 66.8414L500.768 66.7993L499.975 61.3082L533.673 61.3912Z" fill="#CC6C06"/>
<path d="M643.144 193.407C645.8 193.414 648.35 192.507 650.232 190.886C652.115 189.266 653.176 187.064 653.182 184.765C653.188 182.467 652.138 180.26 650.264 178.63C648.39 177 645.845 176.081 643.189 176.074L623.157 176.025C620.502 176.018 617.954 176.924 616.072 178.544C614.191 180.164 613.13 182.364 613.124 184.662C613.118 186.959 614.167 189.164 616.04 190.793C617.913 192.422 620.457 193.341 623.112 193.348C620.456 193.341 617.906 194.248 616.023 195.869C614.14 197.489 613.079 199.691 613.074 201.99C613.068 204.288 614.117 206.495 615.991 208.125C617.865 209.755 620.41 210.675 623.067 210.681C621.086 210.675 619.148 211.178 617.498 212.125C615.847 213.073 614.559 214.422 613.796 216.004C613.033 217.585 612.829 219.327 613.209 221.009C613.59 222.692 614.539 224.239 615.936 225.455C617.333 226.671 619.115 227.502 621.057 227.842C622.998 228.182 625.013 228.017 626.845 227.366C628.677 226.716 630.245 225.609 631.35 224.187C632.456 222.765 633.049 221.092 633.054 219.378L633.122 193.383L643.144 193.407ZM643.144 193.407C641.164 193.402 639.227 193.906 637.579 194.853C635.93 195.801 634.643 197.151 633.882 198.731C633.12 200.312 632.917 202.053 633.299 203.735C633.681 205.416 634.63 206.961 636.027 208.176C637.424 209.391 639.205 210.22 641.146 210.559C643.087 210.898 645.1 210.732 646.931 210.081C648.762 209.43 650.328 208.323 651.432 206.902C652.535 205.48 653.127 203.807 653.131 202.094C653.137 199.796 652.088 197.591 650.215 195.962C648.342 194.333 645.798 193.414 643.144 193.407Z" fill="#CC6C06"/>
<path d="M25.5862 438.492C25.5358 438.609 25.561 438.557 25.5862 438.492ZM46.4077 429.121C44.7287 429.116 43.0708 429.613 41.5621 430.571C41.073 429.281 40.5667 428.154 40.4854 427.309C40.3878 426.323 40.2808 425.738 40.4007 424.569C40.5206 423.399 41.0508 421.743 41.0428 421.624C41.0348 421.505 40.9278 420.909 39.851 420.896C38.7741 420.882 37.8468 421.162 37.7381 421.53C37.5462 422.202 37.3964 422.893 37.2903 423.597C37.095 424.864 35.1223 429.386 34.0059 431.744C33.641 430.823 33.3342 430.01 33.2691 429.36C33.1715 428.374 33.0645 427.789 33.1844 426.619C33.3044 425.45 33.8346 423.794 33.8265 423.675C33.8185 423.556 33.7115 422.96 32.6355 422.947C31.5595 422.933 30.6313 423.212 30.5218 423.58C30.4124 423.948 30.2932 424.814 30.074 425.648C29.8548 426.481 27.2232 434.013 26.5344 435.971C26.1812 436.967 25.8786 437.768 25.6601 438.309C25.6265 438.395 25.6013 438.449 25.5845 438.492C25.6097 438.438 25.6265 438.384 25.6265 438.406C25.4416 438.871 25.3324 439.131 25.3324 439.131L25.3324 439.142C25.1896 439.488 25.0301 439.802 24.955 439.801C24.9049 439.801 24.7988 438.891 24.9856 437.646C25.3848 435.026 26.322 430.956 26.314 430.816C26.3059 430.74 26.4914 430.036 25.7077 429.655C24.9489 429.296 24.6719 429.891 24.6051 429.891C24.5383 429.891 24.4877 430.107 24.4877 430.107C24.4877 430.107 25.3428 425.517 22.881 425.511C21.345 425.507 19.2022 427.69 18.1469 429.669C17.4862 430.133 16.0561 431.137 14.5507 432.205C13.9736 432.615 13.3798 433.036 12.8195 433.436C12.7779 433.381 12.7446 433.327 12.703 433.273C9.7261 429.128 4.21744 426.191 4.46564 420.635C4.55438 418.61 5.11083 413.294 15.1092 406.864C23.3038 401.599 29.8406 403.066 30.9583 406.296C32.5658 410.903 27.4271 419.457 18.9283 420.671C15.689 421.129 13.9911 419.5 13.5669 418.892C13.1261 418.252 13.0594 418.22 12.8922 418.338C12.6162 418.533 12.79 419.096 12.8893 419.432C13.1375 420.288 14.1771 421.807 15.9523 422.57C17.5117 423.234 21.3073 423.612 25.9038 421.316C31.0678 418.751 35.101 411.581 33.9396 405.567C32.7567 399.456 24.955 397.433 17.5642 400.815C13.1604 402.83 8.3955 406.002 4.96292 410.142C0.885499 415.07 0.224014 419.369 0.486469 421.167C1.4207 427.548 8.18667 431.724 10.8909 434.806C10.7571 434.904 10.6316 434.99 10.5145 435.076C9.15239 435.95 3.97676 439.446 2.67404 443.147C1.20223 447.346 2.89737 450.361 4.01407 450.775C7.49938 452.04 11.0773 449.785 13.0062 446.075C14.935 442.365 14.7147 437.513 13.8356 435.301C13.8273 435.269 13.8107 435.247 13.8024 435.214C14.1537 434.944 14.5134 434.675 14.8731 434.405C15.5665 433.876 16.2439 433.39 16.8377 432.969C16.5008 434.138 16.255 435.545 16.1245 437.581C15.968 439.963 16.7197 443.052 17.7016 444.267C18.1343 444.799 18.6593 444.811 18.9849 444.812C20.1369 444.815 20.6577 443.581 21.2367 442.11C21.9509 440.314 22.5824 438.225 22.5824 438.225C22.5824 438.225 21.783 443.877 23.9284 443.882C24.7123 443.884 25.5004 442.575 25.8536 441.905L25.8536 441.916C25.8536 441.916 25.8704 441.872 25.9123 441.786C25.9962 441.623 26.0382 441.526 26.0382 441.526L26.0383 441.494C26.3574 440.79 27.0544 439.178 28.104 436.517C29.4653 433.076 30.7696 428.78 30.7696 428.78C30.8921 429.725 31.0626 430.659 31.2799 431.575C31.511 432.605 32.0006 433.732 32.3901 434.827C32.0714 435.389 31.8785 435.714 31.8785 435.714C31.8791 435.722 31.8821 435.73 31.8868 435.735C31.6353 436.168 31.3502 436.633 31.0569 437.087C29.9849 438.731 28.7103 440.612 28.5419 441.153C28.3399 441.792 28.3888 442.268 28.7718 442.638C29.0549 442.92 29.5557 442.964 30.0809 442.911C31.0411 442.827 31.7181 442.526 32.0441 442.331C32.6451 442.054 33.2133 441.669 33.7326 441.188C34.7786 440.194 35.4168 438.766 35.3633 436.881C35.3326 435.841 35.0765 434.801 34.7618 433.826C34.8541 433.652 34.9547 433.469 35.0471 433.285C36.7072 430.159 37.9934 426.727 37.9934 426.727C38.1159 427.672 38.2864 428.606 38.5037 429.522C38.7018 430.4 39.0908 431.365 39.4473 432.308C37.8912 433.939 36.9262 435.832 36.5891 437.077C35.9653 439.382 36.4468 440.423 37.3561 440.664C37.7649 440.773 38.3499 440.525 38.7846 440.288C39.43 440.011 40.0389 439.607 40.59 439.09C41.6361 438.097 42.649 436.702 42.5871 434.807C42.5643 433.951 42.3829 433.095 42.1429 432.271C43.4554 431.56 45.1585 431.174 47.3281 431.504C51.9744 432.22 52.8745 435.991 52.6951 437.561C52.5157 439.131 51.5367 440.005 51.2105 440.265C50.8843 440.524 50.7838 440.621 50.8084 440.816C50.8494 441.098 50.9997 441.087 51.2753 441.023C51.6595 440.937 53.7154 439.751 53.8148 436.838C53.9579 433.156 51.2395 429.099 46.4052 429.119L46.4077 429.121ZM10.5396 444.705C8.99874 446.878 6.84285 447.695 5.91887 447C4.92743 446.248 5.32811 443.045 7.22828 440.73C8.38394 439.325 9.87241 438.029 10.8595 437.23C11.0854 437.057 11.4116 436.798 11.8131 436.485C11.8801 436.431 11.9135 436.41 11.9135 436.41C11.9888 436.345 12.0724 436.291 12.1561 436.226C12.8396 439.52 12.165 442.421 10.5396 444.702L10.5396 444.705ZM21.7815 434.833C21.2428 436.532 20.1054 440.862 19.4215 440.633C18.8377 440.436 18.4873 437.132 19.3222 433.885C19.7438 432.251 20.6338 430.303 21.1617 429.546C22.0071 428.325 22.9348 427.937 23.1506 428.425C23.4411 429.065 22.1182 433.773 21.7815 434.833ZM31.0327 440.596C30.8069 440.747 30.598 440.844 30.498 440.768C30.423 440.714 30.5905 440.508 30.5905 440.508C30.5905 440.508 31.7551 438.898 32.2161 438.162C32.4844 437.73 32.7946 437.221 33.1291 436.659C33.129 436.713 33.1372 436.767 33.137 436.832C33.1211 438.771 31.6827 440.078 31.0302 440.596L31.0327 440.596ZM38.1823 438.502C38.0158 438.35 38.0421 437.841 38.6055 436.261C38.8242 435.644 39.3269 434.606 40.1985 433.611C40.2959 433.989 40.3484 434.383 40.3541 434.782C40.3394 437.218 38.9922 438.125 38.1823 438.502Z" fill="#CC6C06"/>
<path d="M606.135 464L606 515.99L659.426 516.121L659.561 464.132L606.135 464ZM635.104 504.619C635.091 509.679 632.032 511.981 627.584 511.97C623.565 511.96 621.245 509.935 620.058 507.483L624.155 505.091C624.939 506.451 625.651 507.601 627.38 507.606C629.026 507.61 630.077 506.986 630.083 504.537L630.127 487.93L635.147 487.943L635.104 504.619ZM646.962 512.017C642.3 512.006 639.288 509.84 637.829 507.005L641.925 504.717C642.994 506.426 644.398 507.694 646.866 507.7C648.941 507.705 650.28 506.699 650.283 505.295C650.288 503.624 648.93 503.028 646.631 502.036L645.38 501.511C641.758 500.005 639.366 498.108 639.377 494.127C639.386 490.46 642.267 487.682 646.739 487.693C649.935 487.701 652.222 488.786 653.861 491.621L649.943 494.049C649.088 492.549 648.159 491.955 646.716 491.952C645.25 491.948 644.317 492.851 644.314 494.035C644.31 495.497 645.239 496.091 647.395 497.013L648.646 497.539C652.91 499.325 655.303 501.152 655.292 505.237C655.281 509.624 651.721 512.029 646.962 512.017Z" fill="#CC6C06"/>
<path d="M71.896 547.906C71.8954 548.121 71.6472 548.292 71.3348 548.292C70.9793 548.323 70.732 548.15 70.7327 547.903C70.7332 547.688 70.9814 547.517 71.2938 547.518C71.617 547.486 71.8966 547.659 71.896 547.906ZM68.5473 547.414C68.4714 547.629 68.6862 547.877 69.0091 547.942C69.2889 548.05 69.6123 547.943 69.6775 547.729C69.7427 547.514 69.5387 547.266 69.2158 547.168C68.9359 547.092 68.6233 547.199 68.5473 547.414ZM73.3087 547.243C72.9962 547.318 72.7802 547.521 72.8119 547.769C72.8436 547.984 73.1233 548.124 73.4467 548.05C73.7592 547.975 73.9752 547.771 73.9434 547.556C73.9116 547.352 73.6212 547.212 73.3087 547.243ZM80.5034 506.065C65.5636 506.028 54.1058 517.32 54.067 532.231C54.036 544.153 61.5278 554.374 72.2575 557.991C73.6356 558.242 74.1225 557.393 74.1243 556.695C74.126 556.028 74.1033 552.351 74.1092 550.094C74.1092 550.094 66.5651 551.688 64.9942 546.868C64.9942 546.868 63.7744 543.736 62.01 542.926C62.01 542.926 59.5478 541.232 62.1867 541.271C62.1867 541.271 64.8682 541.492 66.3372 544.054C68.6853 548.21 72.6415 547.026 74.1836 546.321C74.4358 544.601 75.1391 543.41 75.9165 542.702C69.897 542.021 63.8243 541.135 63.8512 530.793C63.8589 527.837 64.6813 526.355 66.4097 524.467C66.1314 523.768 65.2234 520.884 66.7087 517.168C68.9617 516.475 74.1334 520.089 74.1334 520.089C76.2892 519.493 78.6058 519.187 80.9001 519.192C83.1944 519.198 85.5094 519.515 87.6621 520.123C87.6621 520.123 92.8525 516.523 95.1019 517.238C96.5679 520.972 95.6448 523.841 95.363 524.539C97.0814 526.446 98.1332 527.932 98.1255 530.877C98.0985 541.252 91.752 542.064 85.7291 542.726C86.7179 543.578 87.5538 545.193 87.5473 547.719C87.5378 551.342 87.4939 555.825 87.4916 556.706C87.4898 557.405 87.983 558.255 89.3516 558.012C100.132 554.469 107.462 544.285 107.493 532.363C107.532 517.452 95.4432 506.102 80.5034 506.065ZM64.5085 543.104C64.3682 543.211 64.3999 543.458 64.5825 543.663C64.7544 543.836 65.0019 543.911 65.1423 543.772C65.2826 543.665 65.2509 543.418 65.0683 543.213C64.8964 543.04 64.6489 542.965 64.5085 543.104ZM63.3475 542.23C63.2717 542.37 63.379 542.542 63.5941 542.65C63.7662 542.758 63.9817 542.726 64.0575 542.576C64.1332 542.436 64.026 542.264 63.8108 542.156C63.5956 542.091 63.4232 542.123 63.3475 542.23ZM66.8274 546.066C66.6547 546.205 66.7185 546.528 66.9657 546.733C67.2128 546.981 67.5251 547.014 67.6656 546.842C67.806 546.703 67.7422 546.38 67.5273 546.175C67.291 545.927 66.9679 545.894 66.8274 546.066ZM65.6036 544.483C65.431 544.59 65.4303 544.869 65.602 545.117C65.7737 545.365 66.0642 545.473 66.2045 545.366C66.3772 545.226 66.3779 544.947 66.2062 544.699C66.0561 544.452 65.7763 544.343 65.6036 544.483Z" fill="#CC6C06"/>
<path d="M325.04 660.104C330.831 660.502 332.069 660.366 332.066 661.507C332.06 663.828 324.243 663.816 324.249 661.664C324.251 661.073 324.644 660.574 325.04 660.104V660.104ZM328.408 646.576C324.557 646.567 324.37 651.727 328.305 651.737C332.182 651.746 332.1 646.585 328.408 646.576V646.576ZM366.546 630.702L366.44 671.551C366.436 673.028 365.83 674.444 364.753 675.486C363.677 676.528 362.22 677.111 360.702 677.107L318.724 677.004C317.206 677 315.752 676.41 314.681 675.362C313.61 674.315 313.011 672.897 313.014 671.419L313.121 630.57C313.125 629.093 313.731 627.678 314.808 626.636C315.884 625.594 317.341 625.01 318.859 625.014L360.837 625.118C362.355 625.121 363.809 625.712 364.88 626.759C365.951 627.806 366.55 629.225 366.546 630.702V630.702ZM339.455 638.679C339.451 640.36 340.447 641.336 342.174 641.34C343.932 641.345 344.935 640.374 344.939 638.692C344.944 637.011 343.948 636.101 342.19 636.096C340.463 636.092 339.459 636.999 339.455 638.679ZM336.839 643.974L330.93 643.96C327.951 643.192 321.205 643.373 321.19 649.361C321.184 651.543 322.301 653.077 323.784 653.79C321.908 655.453 321.02 656.237 321.017 657.351C321.015 658.148 321.346 658.886 322.345 659.299C321.282 660.271 320.672 660.975 320.668 662.303C320.664 664.632 322.751 665.989 328.236 666.003C333.509 666.016 336.573 664.107 336.582 660.716C336.593 656.461 333.226 656.609 325.292 656.118L326.296 654.562C328.321 655.117 335.141 655.307 335.156 649.66C335.159 648.304 334.586 647.359 334.043 646.678L336.831 646.479L336.839 643.974ZM346.864 656.746L345.314 656.536C344.859 656.475 344.829 656.418 344.83 655.944L344.862 643.706L338.589 643.691L338.25 646.077C340.127 646.726 340.276 646.646 340.275 647.262L340.252 655.936C340.25 656.588 340.214 656.467 338.223 656.728L338.217 659.056L346.853 659.077L346.864 656.746ZM358.843 657.955L358.031 655.357C353.145 657.128 353.521 653.905 353.522 653.404L353.54 646.357L358.054 646.369L358.062 643.42L353.79 643.409C353.448 643.408 353.551 643.701 353.563 638.926L350.68 638.919C350.339 642.132 349.275 643.427 346.613 643.715L346.606 646.34C349.047 646.346 348.97 646.248 348.969 646.641L348.949 654.366C348.94 657.699 350.299 659.117 353.905 659.126C355.629 659.13 357.538 658.575 358.843 657.955V657.955Z" fill="#CC6C06"/>
<path d="M352.581 418.167C353.957 417.5 355.866 416.922 355.866 416.922C355.866 416.922 350.432 417.62 345.027 417.938C338.414 418.327 331.31 418.406 327.743 418.068C319.305 417.271 332.377 415.07 332.377 415.07C332.377 415.07 327.308 414.83 321.06 416.962C313.689 419.492 339.312 420.648 352.581 418.167ZM340.59 414.97C337.923 410.717 328.923 406.981 340.59 400.447C355.144 392.299 347.681 387 347.681 387C350.699 395.417 337.066 397.967 332.138 403.196C328.782 406.772 333.781 410.607 340.59 414.97V414.97ZM356.68 397.419C356.694 397.419 332.082 401.782 343.833 411.384C347.301 414.213 342.921 416.763 342.921 416.763C342.921 416.763 351.724 413.536 347.681 409.501C343.904 405.736 341.011 403.864 356.68 397.419V397.419ZM355.824 424.363C355.747 424.458 355.653 424.545 355.543 424.622C373.557 421.265 366.93 412.779 358.323 414.93C357.858 415.051 357.457 415.27 357.172 415.558C357.674 415.429 358.191 415.329 358.716 415.259C363.069 414.611 369.317 419.393 355.824 424.363V424.363ZM362.445 430.569C362.445 430.569 364.481 431.754 360.213 432.68C352.084 434.423 326.404 434.951 319.271 432.75C316.702 431.963 321.518 430.857 323.034 430.628C324.607 430.389 325.519 430.429 325.519 430.429C322.669 429.005 307.084 433.228 317.601 434.433C346.276 437.74 369.887 432.949 362.445 430.569ZM331.057 426.445C320.007 428.636 337.782 433.158 351.85 428.885C350.478 428.507 349.154 428.047 347.891 427.511C341.615 428.357 338.709 428.417 333.008 427.959C328.305 427.58 331.057 426.445 331.057 426.445V426.445ZM356.301 436.127C345.252 437.601 331.618 437.432 323.545 436.485C323.545 436.475 325.202 437.451 333.71 437.84C346.656 438.428 366.537 437.511 367 433.168C367 433.168 366.101 434.812 356.301 436.127V436.127ZM350.18 422.162C341.868 423.297 337.052 423.267 330.973 422.819C326.269 422.47 329.344 420.857 329.344 420.857C317.157 423.725 336.111 426.973 353.142 423.437C352.041 423.161 351.033 422.727 350.18 422.162Z" fill="#CC6C06"/>
<path d="M631.738 351.596L642.584 380.18C634.997 376.643 629.772 369.158 629.772 360.5C629.772 357.323 630.477 354.32 631.738 351.596V351.596ZM667.844 359.4C667.844 356.696 666.84 354.824 665.974 353.364C664.82 351.565 663.741 350.033 663.741 348.233C663.741 346.218 665.323 344.347 667.556 344.347C667.652 344.347 667.748 344.357 667.855 344.367C663.805 340.799 658.42 338.619 652.5 338.619C644.561 338.619 637.572 342.537 633.501 348.48C634.035 348.501 634.538 348.511 634.965 348.511C637.337 348.511 641.024 348.233 641.024 348.233C642.253 348.161 642.392 349.899 641.173 350.033C641.173 350.033 639.945 350.166 638.577 350.238L646.858 373.929L651.838 359.575L648.301 350.238C647.072 350.166 645.918 350.033 645.918 350.033C644.689 349.961 644.839 348.161 646.057 348.233C646.057 348.233 649.807 348.511 652.041 348.511C654.413 348.511 658.099 348.233 658.099 348.233C659.328 348.161 659.467 349.899 658.249 350.033C658.249 350.033 657.02 350.166 655.652 350.238L663.869 373.754L666.135 366.464C667.096 363.441 667.844 361.271 667.844 359.4ZM652.895 362.413L646.078 381.486C648.119 382.062 650.267 382.381 652.5 382.381C655.15 382.381 657.682 381.939 660.044 381.136C659.98 381.044 659.926 380.941 659.884 380.838L652.895 362.413ZM672.45 350.002C672.546 350.701 672.599 351.441 672.599 352.254C672.599 354.475 672.172 356.963 670.868 360.089L663.923 379.409C670.687 375.615 675.228 368.572 675.228 360.5C675.228 356.696 674.224 353.117 672.45 350.002V350.002ZM679 360.5C679 374.566 667.107 386 652.5 386C637.882 386 626 374.556 626 360.5C626 346.434 637.882 335 652.5 335C667.107 335 679 346.434 679 360.5ZM677.782 360.5C677.782 347.082 666.434 336.172 652.5 336.172C638.555 336.172 627.218 347.082 627.218 360.5C627.218 373.918 638.566 384.828 652.5 384.828C666.445 384.828 677.782 373.918 677.782 360.5Z" fill="#CC6C06"/>
<path d="M78.0283 170.181C77.1174 166.664 75.3903 164.012 71.7111 164.012H66.9673V169.407C66.9673 173.596 63.2764 177.125 59.0649 177.125H46.4305C42.9761 177.125 40.1133 179.971 40.1133 183.307V194.895C40.1133 198.196 43.0944 200.132 46.4305 201.076C50.429 202.203 54.2737 202.408 59.0649 201.076C62.2471 200.188 65.3821 198.401 65.3821 194.895V190.262H52.7595V188.714H71.7111C75.3903 188.714 76.7507 186.244 78.0283 182.544C79.3533 178.73 79.2941 175.065 78.0283 170.181V170.181ZM59.8575 193.347C61.1706 193.347 62.2353 194.383 62.2353 195.658C62.2353 196.944 61.1706 197.98 59.8575 197.98C58.5562 197.98 57.4797 196.933 57.4797 195.658C57.4915 194.371 58.5562 193.347 59.8575 193.347ZM45.8508 175.6H58.4852C61.9987 175.6 64.8024 172.811 64.8024 169.419V157.819C64.8024 154.518 61.9159 152.047 58.4852 151.49C54.2501 150.818 49.6482 150.852 45.8508 151.501C40.5036 152.412 39.5336 154.313 39.5336 157.83V162.463H52.1798V164.012H34.7898C31.1106 164.012 27.8929 166.14 26.8873 170.181C25.728 174.815 25.6807 177.706 26.8873 182.544C27.7864 186.141 29.9276 188.714 33.6068 188.714H37.9484V183.159C37.9484 179.14 41.5565 175.6 45.8508 175.6ZM45.0582 159.367C43.7451 159.367 42.6804 158.331 42.6804 157.056C42.6922 155.77 43.7451 154.734 45.0582 154.734C46.3595 154.734 47.436 155.781 47.436 157.056C47.436 158.331 46.3713 159.367 45.0582 159.367V159.367Z" fill="#CC6C06"/>
<path d="M203.29 606.527C202.731 606.322 202.172 606.129 201.613 605.947C201.706 605.525 201.789 605.104 201.872 604.683C203.145 597.899 202.307 592.446 199.481 590.647C196.758 588.929 192.318 590.716 187.825 595.019C187.38 595.44 186.945 595.884 186.531 596.328C186.252 596.032 185.962 595.736 185.672 595.451C180.962 590.852 176.242 588.917 173.416 590.727C170.704 592.457 169.896 597.591 171.035 604.011C171.149 604.649 171.273 605.275 171.418 605.912C170.755 606.117 170.103 606.345 169.492 606.584C163.965 608.69 160 612.014 160 615.452C160 619.003 164.223 622.566 169.969 624.729C170.434 624.9 170.9 625.071 171.376 625.219C171.221 625.902 171.087 626.573 170.962 627.268C169.875 633.585 170.724 638.594 173.436 640.313C176.231 642.089 180.931 640.267 185.506 635.862C185.869 635.509 186.231 635.145 186.593 634.758C187.049 635.247 187.525 635.714 188.001 636.169C192.431 640.358 196.81 642.055 199.512 640.336C202.307 638.56 203.218 633.176 202.038 626.619C201.945 626.118 201.841 625.606 201.727 625.082C202.058 624.98 202.379 624.866 202.7 624.752C208.673 622.578 213 619.06 213 615.452C213 612.003 208.921 608.656 203.29 606.527V606.527ZM189.285 596.863C193.135 593.175 196.727 591.729 198.363 592.765C200.112 593.869 200.785 598.331 199.688 604.194C199.615 604.581 199.543 604.956 199.45 605.332C197.152 604.763 194.823 604.353 192.483 604.125C191.137 602.008 189.668 599.982 188.073 598.081C188.477 597.66 188.871 597.261 189.285 596.863V596.863ZM177.308 621.36C177.836 622.35 178.374 623.34 178.943 624.308C177.329 624.114 175.724 623.83 174.14 623.454C174.596 621.815 175.165 620.119 175.828 618.389C176.304 619.39 176.79 620.381 177.308 621.36V621.36ZM174.171 607.665C175.662 607.301 177.246 607.005 178.892 606.778C178.343 607.722 177.805 608.69 177.297 609.669C176.79 610.637 176.293 611.627 175.828 612.629C175.175 610.933 174.627 609.271 174.171 607.665ZM177.008 615.509C177.691 613.938 178.436 612.401 179.223 610.887C180.01 609.373 180.858 607.905 181.749 606.459C183.301 606.334 184.885 606.265 186.5 606.265C188.115 606.265 189.709 606.334 191.251 606.459C192.131 607.893 192.97 609.362 193.767 610.864C194.564 612.367 195.309 613.904 196.013 615.463C195.32 617.034 194.574 618.582 193.777 620.107C192.99 621.621 192.152 623.09 191.272 624.547C189.73 624.672 188.125 624.729 186.5 624.729C184.875 624.729 183.301 624.672 181.78 624.57C180.879 623.124 180.03 621.644 179.233 620.13C178.436 618.616 177.701 617.079 177.008 615.509ZM195.703 621.337C196.23 620.335 196.727 619.322 197.214 618.298C197.876 619.948 198.456 621.621 198.963 623.34C197.359 623.739 195.734 624.046 194.098 624.251C194.657 623.295 195.185 622.316 195.703 621.337ZM197.193 612.629C196.707 611.627 196.21 610.625 195.692 609.646C195.185 608.679 194.657 607.722 194.108 606.778C195.775 607.005 197.369 607.313 198.86 607.688C198.384 609.373 197.825 611.012 197.193 612.629V612.629ZM186.521 599.822C187.608 601.12 188.632 602.486 189.585 603.898C187.535 603.795 185.475 603.795 183.426 603.898C184.44 602.429 185.486 601.063 186.521 599.822ZM174.513 592.844C176.252 591.729 180.113 593.323 184.181 597.284C184.44 597.534 184.699 597.808 184.968 598.081C183.363 599.982 181.883 602.008 180.527 604.125C178.188 604.353 175.869 604.751 173.571 605.309C173.436 604.729 173.322 604.137 173.209 603.545C172.236 598.035 172.877 593.88 174.513 592.844V592.844ZM171.977 622.851C171.542 622.714 171.118 622.566 170.693 622.407C168.488 621.644 165.983 620.438 164.172 618.855C163.126 618.058 162.422 616.829 162.226 615.452C162.226 613.369 165.497 610.705 170.217 608.895C170.807 608.667 171.407 608.462 172.008 608.269C172.712 610.739 173.561 613.164 174.544 615.509C173.55 617.888 172.691 620.347 171.977 622.851V622.851ZM184.047 634.006C182.339 635.725 180.362 637.091 178.208 638.025C177.059 638.628 175.734 638.685 174.554 638.173C172.908 637.126 172.225 633.107 173.157 627.7C173.271 627.063 173.395 626.425 173.54 625.799C175.859 626.346 178.198 626.721 180.569 626.915C181.935 629.043 183.436 631.081 185.04 632.993C184.709 633.346 184.378 633.688 184.047 634.006ZM186.583 631.24C185.527 629.988 184.471 628.599 183.446 627.108C184.44 627.154 185.465 627.177 186.5 627.177C187.566 627.177 188.612 627.154 189.647 627.097C188.695 628.542 187.67 629.92 186.583 631.24V631.24ZM200.112 634.655C200.019 636.044 199.398 637.342 198.404 638.218C196.758 639.266 193.249 637.9 189.461 634.325C189.026 633.915 188.591 633.471 188.146 633.016C189.73 631.092 191.189 629.055 192.514 626.915C194.885 626.698 197.245 626.3 199.574 625.719C199.678 626.186 199.771 626.653 199.854 627.108C200.361 629.567 200.444 632.128 200.112 634.655V634.655ZM201.996 622.418C201.706 622.521 201.417 622.623 201.116 622.714C200.392 620.233 199.502 617.808 198.477 615.452C199.471 613.129 200.309 610.739 201.013 608.292C201.551 608.462 202.069 608.644 202.566 608.827C207.389 610.648 210.774 613.357 210.774 615.429C210.774 617.66 207.162 620.54 201.996 622.418ZM186.5 620.711C189.119 620.711 191.241 618.377 191.241 615.497C191.241 612.617 189.119 610.284 186.5 610.284C183.881 610.284 181.759 612.617 181.759 615.497C181.759 618.377 183.881 620.711 186.5 620.711Z" fill="#CC6C06"/>
<path d="M21.6412 304.877H31.3588L26.5 294.45L21.6412 304.877ZM26.5 278L0 286.47L4.05534 317.855L26.5 329L48.9447 317.855L53 286.47L26.5 278ZM43.1039 316.91H36.9062L33.565 309.465H19.4605L16.1193 316.91H9.90881L26.5 283.635L43.1039 316.91Z" fill="#CC6C06"/>
<path d="M149.223 40H140.125L133.5 51.7764L127.821 40H107L133.5 91L160 40H149.223ZM113.59 44.2533H119.954L133.5 70.5973L147.034 44.2533H153.399L133.5 82.5598L113.59 44.2533V44.2533Z" fill="#CC6C06"/>
<path d="M542.488 641C541.693 641 540.887 640.818 540.187 640.474L532.868 636.78C531.777 636.254 532.31 636.072 532.666 635.97C534.125 635.535 534.422 635.444 535.976 634.685C536.142 634.604 536.355 634.634 536.521 634.726L542.144 637.569C542.346 637.671 542.63 637.671 542.82 637.569L564.73 626.781C564.931 626.68 565.062 626.478 565.062 626.275V604.699C565.062 604.487 564.931 604.295 564.718 604.183L542.82 593.405C542.619 593.304 542.346 593.304 542.144 593.405L520.259 604.193C520.045 604.295 519.915 604.497 519.915 604.709V626.275C519.915 626.478 520.045 626.68 520.259 626.771L526.261 629.726C529.523 631.113 531.516 629.483 531.516 627.834V606.541C531.516 606.238 531.8 606.005 532.156 606.005H534.932C535.276 606.005 535.573 606.238 535.573 606.541V627.844C535.573 631.548 533.2 633.673 529.084 633.673C527.815 633.673 526.818 633.673 524.043 632.499L518.301 629.676C516.878 628.977 516 627.672 516 626.265V604.699C516 603.303 516.878 601.987 518.301 601.289L540.187 590.501C541.575 589.833 543.413 589.833 544.789 590.501L566.699 601.299C568.122 601.997 569 603.303 569 604.709V626.275C569 627.672 568.122 628.977 566.699 629.686L544.789 640.474C544.09 640.818 543.295 641 542.488 641ZM560.175 619.738C560.175 615.7 556.972 614.627 550.246 613.868C543.437 613.099 542.749 612.704 542.749 611.348C542.749 610.225 543.33 608.727 548.372 608.727C552.868 608.727 554.528 609.557 555.216 612.148C555.276 612.391 555.536 612.573 555.833 612.573H558.68C558.858 612.573 559.024 612.512 559.143 612.401C559.261 612.289 559.321 612.138 559.309 611.986C558.87 607.523 555.394 605.448 548.372 605.448C542.12 605.448 538.396 607.695 538.396 611.47C538.396 615.558 542.109 616.692 548.099 617.198C555.276 617.795 555.833 618.695 555.833 619.9C555.833 621.984 553.864 622.875 549.25 622.875C543.449 622.875 542.18 621.63 541.753 619.171C541.705 618.908 541.444 618.716 541.124 618.716H538.289C537.933 618.716 537.66 618.959 537.66 619.252C537.66 622.399 539.665 626.154 549.261 626.154C556.189 626.144 560.175 623.806 560.175 619.738V619.738Z" fill="#CC6C06"/>
<path d="M343 280.143H339.667V271.571H343V280.143ZM373 263V288.714H343V293H329.667V288.714H313V263H373ZM329.667 267.286H316.333V284.429H323V271.571H326.333V284.429H329.667V267.286ZM346.333 267.286H333V288.714H339.667V284.429H346.333V267.286ZM369.667 267.286H349.667V284.429H356.333V271.571H359.667V284.429H363V271.571H366.333V284.429H369.667V267.286Z" fill="#CC6C06"/>
</svg>
